<svg xmlns="http://www.w3.org/2000/svg" viewBox="0 0 172.85 156.72"><defs><style>.cls-1{fill:#b9b9c7;}</style></defs><g id="Layer_2" data-name="Layer 2"><g id="Layer_1-2" data-name="Layer 1"><path class="cls-1" d="M146.23,0H26.52A26.47,26.47,0,0,0,3.58,39.72L63.49,143.45a26.47,26.47,0,0,0,45.88,0L169.29,39.72A26.53,26.53,0,0,0,146.23,0Zm-29,67.9-9.82,17a13,13,0,0,1-11.3,6.5H76.62a13,13,0,0,1-11.19-6.5l-9.81-17a13.23,13.23,0,0,1,0-13L65.43,38a13,13,0,0,1,11.19-6.5H96.13a13,13,0,0,1,11.3,6.5l9.82,16.89A13.23,13.23,0,0,1,117.25,67.9Z"/></g></g></svg>